<!DOCTYPE svg PUBLIC "-//W3C//DTD SVG 20010904//EN" "http://www.w3.org/TR/2001/REC-SVG-20010904/DTD/svg10.dtd">
<svg version="1.0" xmlns="http://www.w3.org/2000/svg" width="982px" height="304px" viewBox="0 0 9820 3040" preserveAspectRatio="xMidYMid meet">
<g id="layer101" fill="#3b3b3b" fill-rule="evenodd">
<path d="M4551 2670 C4505 2653,4474 2613,4478 2572 C4480 2558,4510 2554,4510 2568 C4510 2573,4521 2588,4534 2603 C4554 2625,4567 2629,4607 2629 C4660 2629,4714 2603,4722 2572 C4725 2561,4722 2540,4716 2525 C4703 2494,4647 2470,4587 2470 C4560 2470,4541 2461,4518 2441 C4476 2403,4474 2358,4513 2307 C4536 2278,4550 2269,4586 2264 C4636 2256,4690 2270,4730 2300 C4748 2313,4752 2321,4743 2330 C4735 2338,4717 2336,4676 2322 C4608 2299,4566 2303,4544 2337 C4511 2387,4547 2430,4624 2430 C4760 2430,4817 2575,4710 2649 C4675 2673,4592 2684,4551 2670 " />
<path d="M3870 2641 C3865 2631,3860 2567,3859 2499 C3858 2430,3855 2361,3852 2344 C3848 2314,3848 2314,3771 2314 C3711 2314,3695 2311,3695 2300 C3695 2278,3747 2271,3899 2273 C4027 2274,4035 2276,4035 2295 C4035 2312,4027 2315,3967 2317 C3900 2320,3900 2320,3900 2485 C3900 2644,3892 2684,3870 2641 " />
<path d="M4243 2648 C4239 2641,4234 2566,4232 2480 C4230 2390,4224 2322,4218 2318 C4212 2315,4176 2314,4138 2317 C4075 2321,4070 2320,4070 2302 C4070 2285,4078 2281,4127 2277 C4159 2274,4234 2272,4295 2273 C4397 2274,4405 2276,4405 2295 C4405 2312,4397 2315,4336 2317 C4268 2320,4268 2320,4273 2412 C4284 2578,4281 2649,4265 2655 C4256 2657,4246 2654,4243 2648 " />
</g>
<g id="layer102" fill="#c32223" fill-rule="evenodd">
<path d="M1115 2834 C1101 2831,1081 2817,1070 2803 C1050 2777,1050 2766,1050 1707 C1050 638,1050 638,1079 609 C1099 589,1118 580,1140 580 C1161 580,1180 589,1200 609 C1230 638,1230 638,1230 1710 C1230 2781,1230 2781,1200 2810 C1169 2840,1157 2844,1115 2834 " />
<path d="M2519 2720 C2489 2691,2489 2691,2492 1704 C2495 718,2495 718,2523 694 C2558 663,2601 663,2636 694 C2665 718,2665 718,2665 1710 C2665 2701,2665 2701,2637 2725 C2599 2759,2557 2757,2519 2720 " />
<path d="M1470 2564 C1459 2561,1441 2547,1430 2532 C1410 2507,1410 2494,1410 1709 C1410 911,1410 911,1433 883 C1465 846,1528 844,1562 878 C1585 900,1585 900,1587 1704 C1590 2508,1590 2508,1565 2534 C1538 2561,1501 2573,1470 2564 " />
<path d="M722 2455 C695 2431,695 2431,695 1709 C695 988,695 988,723 964 C761 930,804 932,840 969 C870 998,870 998,870 1709 C870 2421,870 2421,840 2450 C802 2487,760 2489,722 2455 " />
<path d="M2160 2450 C2130 2421,2130 2421,2130 1711 C2130 1001,2130 1001,2155 970 C2191 928,2239 928,2280 969 C2310 998,2310 998,2310 1709 C2310 2421,2310 2421,2280 2450 C2260 2469,2239 2480,2220 2480 C2200 2480,2179 2469,2160 2450 " />
<path d="M390 2219 C328 2198,330 2210,330 1709 C330 1252,330 1252,354 1226 C388 1190,450 1189,485 1224 C510 1249,510 1249,510 1700 C510 2023,506 2157,498 2173 C472 2221,437 2236,390 2219 " />
<path d="M1819 2215 C1803 2207,1785 2189,1779 2174 C1766 2140,1766 1280,1779 1246 C1798 1195,1884 1179,1923 1219 C1944 1240,1945 1246,1947 1695 C1950 2090,1948 2153,1935 2179 C1926 2196,1917 2210,1914 2210 C1912 2210,1896 2214,1880 2220 C1857 2227,1842 2226,1819 2215 " />
<path d="M2875 2195 C2850 2170,2850 2170,2850 1710 C2850 1249,2850 1249,2874 1224 C2909 1189,2971 1190,3005 1226 C3030 1252,3030 1252,3030 1704 C3030 2111,3028 2157,3013 2180 C2987 2217,2983 2220,2940 2220 C2910 2220,2893 2213,2875 2195 " />
<path d="M4022 1927 C3881 1895,3782 1822,3735 1718 C3683 1602,3681 1550,3720 1106 C3737 901,3740 886,3764 854 C3794 815,3810 805,3858 796 C3907 787,3964 805,3994 840 C4023 875,4027 927,4010 1080 C3985 1321,3977 1505,3989 1565 C4006 1645,4053 1691,4134 1708 C4257 1732,4352 1680,4383 1569 C4392 1539,4406 1420,4415 1305 C4441 948,4446 906,4463 873 C4510 783,4641 766,4705 842 C4732 874,4732 874,4726 994 C4710 1293,4684 1536,4659 1621 C4625 1736,4546 1834,4447 1886 C4353 1935,4146 1955,4022 1927 " />
<path d="M4923 1927 C4903 1920,4877 1902,4866 1886 C4841 1853,4840 1831,4858 1620 C4864 1540,4874 1419,4879 1352 C4890 1216,4903 1179,4952 1150 C5026 1104,5118 1121,5150 1185 C5165 1215,5165 1215,5221 1179 C5355 1093,5530 1104,5618 1204 C5669 1262,5683 1332,5676 1479 C5656 1865,5645 1902,5542 1929 C5468 1949,5388 1913,5373 1853 C5370 1839,5374 1739,5382 1632 C5399 1426,5397 1404,5357 1362 C5333 1337,5286 1332,5234 1351 C5181 1370,5163 1416,5150 1560 C5128 1796,5120 1849,5103 1875 C5071 1925,4987 1949,4923 1927 " />
<path d="M5892 1927 C5870 1919,5846 1900,5831 1879 C5805 1841,5805 1874,5835 1515 C5859 1232,5864 1201,5895 1169 C5953 1109,6063 1110,6115 1172 C6145 1208,6145 1217,6119 1515 C6113 1581,6105 1680,6100 1735 C6096 1791,6085 1850,6076 1866 C6049 1919,5957 1949,5892 1927 " />
<path d="M6526 1921 C6457 1897,6413 1864,6384 1815 C6360 1772,6340 1684,6345 1640 C6346 1626,6351 1565,6354 1505 C6358 1444,6363 1384,6365 1372 C6369 1352,6366 1350,6329 1350 C6249 1350,6200 1308,6200 1241 C6200 1182,6260 1140,6344 1140 C6390 1140,6390 1140,6390 1092 C6390 987,6424 932,6503 910 C6558 895,6616 909,6650 945 C6672 969,6674 979,6674 1055 C6673 1139,6673 1139,6732 1139 C6827 1140,6872 1174,6872 1246 C6872 1318,6822 1349,6707 1349 C6668 1349,6649 1353,6649 1362 C6649 1369,6645 1435,6639 1509 C6634 1583,6632 1657,6635 1672 C6644 1714,6680 1733,6748 1731 C6796 1729,6809 1733,6825 1750 C6853 1781,6849 1863,6819 1895 C6777 1940,6622 1954,6526 1921 " />
<path d="M7013 1930 C6973 1916,6942 1882,6935 1845 C6932 1827,6934 1752,6940 1678 C6945 1605,6954 1491,6959 1425 C6989 1025,7001 912,7016 877 C7038 826,7089 796,7150 796 C7229 798,7201 766,7524 1212 C7611 1332,7684 1429,7685 1427 C7687 1425,7693 1361,7699 1284 C7731 872,7733 860,7792 818 C7814 802,7837 797,7877 797 C7929 797,7936 799,7968 834 C8002 872,8002 872,7997 983 C7994 1044,7984 1178,7975 1280 C7967 1381,7958 1498,7955 1540 C7944 1729,7930 1832,7912 1862 C7876 1924,7793 1950,7723 1921 C7705 1913,7673 1882,7644 1841 C7618 1805,7548 1709,7490 1630 C7431 1550,7352 1442,7314 1390 L7245 1295 7233 1435 C7201 1811,7198 1835,7181 1864 C7151 1916,7067 1949,7013 1930 " />
<path d="M8410 1926 C8287 1893,8181 1810,8139 1716 C8112 1654,8101 1566,8110 1489 C8133 1304,8240 1180,8414 1133 C8547 1098,8719 1146,8786 1237 C8861 1338,8894 1507,8850 1561 C8831 1584,8829 1585,8605 1588 C8467 1589,8380 1594,8380 1600 C8380 1606,8386 1625,8393 1643 C8428 1726,8546 1753,8676 1705 C8715 1691,8756 1680,8767 1680 C8818 1680,8848 1778,8817 1839 C8779 1914,8547 1963,8410 1926 M8386 1427 C8408 1349,8448 1315,8521 1316 C8577 1317,8613 1342,8624 1388 C8628 1403,8632 1422,8635 1432 C8639 1448,8628 1450,8510 1450 C8380 1450,8380 1450,8386 1427 " />
<path d="M9244 1930 C9143 1901,9080 1842,9053 1752 C9038 1701,9038 1678,9048 1545 C9064 1333,9068 1353,9009 1347 C8936 1340,8905 1314,8901 1256 C8900 1231,8904 1201,8910 1189 C8925 1161,8978 1140,9033 1140 C9078 1140,9078 1140,9085 1072 C9096 967,9122 930,9202 909 C9251 896,9314 912,9346 947 C9369 972,9371 980,9368 1057 C9365 1140,9365 1140,9422 1140 C9529 1139,9577 1176,9566 1252 C9557 1319,9526 1341,9433 1347 C9390 1350,9351 1357,9347 1363 C9343 1369,9340 1402,9339 1435 C9339 1468,9335 1528,9330 1568 C9320 1653,9331 1704,9362 1721 C9373 1727,9409 1731,9441 1731 C9512 1729,9540 1752,9540 1812 C9540 1875,9517 1906,9459 1924 C9403 1942,9297 1944,9244 1930 " />
<path d="M5942 991 C5891 956,5876 932,5875 880 C5874 822,5898 784,5950 757 C6016 723,6116 742,6159 796 C6188 833,6188 916,6158 954 C6115 1009,5998 1029,5942 991 " />
</g>

</svg>